<?xml version="1.0" encoding="utf-8"?>
<!-- Generator: Adobe Illustrator 19.1.1, SVG Export Plug-In . SVG Version: 6.00 Build 0)  -->
<svg version="1.1" id="_x2014_лой_x5F_1" xmlns="http://www.w3.org/2000/svg" xmlns:xlink="http://www.w3.org/1999/xlink"
	 x="0px" y="0px" viewBox="-91 348 427.1 98" style="enable-background:new -91 348 427.1 98;" xml:space="preserve">
<style type="text/css">
	.st0{fill:url(#SVGID_1_);}
	.st1{fill:url(#SVGID_2_);}
	.st2{fill:url(#SVGID_3_);}
	.st3{fill:url(#SVGID_4_);}
	.st4{fill:#2D2D2E;}
	.st5{fill:#252525;}
	.st6{fill:url(#SVGID_5_);}
	.st7{fill:url(#SVGID_6_);}
	.st8{fill:url(#SVGID_7_);}
	.st9{fill:url(#SVGID_8_);}
	.st10{fill:url(#SVGID_9_);}
	.st11{fill:#4D4C4C;}
	.st12{fill:#383838;}
	.st13{fill:url(#SVGID_10_);}
	.st14{fill:url(#SVGID_11_);}
	.st15{fill:url(#SVGID_12_);}
	.st16{fill:#F4C020;}
	.st17{fill:url(#SVGID_13_);}
	.st18{fill:url(#SVGID_14_);}
	.st19{fill:url(#SVGID_15_);}
	.st20{fill:url(#SVGID_16_);}
	.st21{fill:url(#SVGID_17_);}
	.st22{fill:url(#SVGID_18_);}
	.st23{fill:#FFDE2B;}
	.st24{fill:url(#SVGID_19_);}
	.st25{fill:#F5AA16;}
	.st26{fill:#F9B617;}
	.st27{fill:#F3BD22;}
	.st28{fill:#F08419;}
	.st29{fill:#F9B31F;}
	.st30{fill:#F08E1E;}
	.st31{fill:#FFFFFF;}
	.st32{fill:#0F0F0F;}
</style>
<g>
	<g>
		<g>
			
				<linearGradient id="SVGID_1_" gradientUnits="userSpaceOnUse" x1="-41" y1="373.7" x2="-41" y2="350" gradientTransform="matrix(1 0 0 -1 0 796)">
				<stop  offset="0" style="stop-color:#1E1E1F"/>
				<stop  offset="1" style="stop-color:#000100"/>
			</linearGradient>
			<path class="st0" d="M-41,422.3c12.5,0,22.6,5.3,22.6,11.8c0,6.6-10.1,11.9-22.6,11.9s-22.6-5.3-22.6-11.9
				C-63.6,427.6-53.4,422.3-41,422.3L-41,422.3z"/>
			
				<linearGradient id="SVGID_2_" gradientUnits="userSpaceOnUse" x1="-31.45" y1="366.5691" x2="-31.45" y2="346.3396" gradientTransform="matrix(1 0 0 -1 0 796)">
				<stop  offset="0" style="stop-color:#1A1A1A"/>
				<stop  offset="1" style="stop-color:#010101"/>
			</linearGradient>
			<path class="st1" d="M-25,425.8L-41.9,446c0.3,0,0.6,0,1,0c1.9,0,3.7-0.1,5.5-0.4l14.4-17.1C-22.1,427.5-23.5,426.6-25,425.8
				L-25,425.8z"/>
			
				<linearGradient id="SVGID_3_" gradientUnits="userSpaceOnUse" x1="-63.7083" y1="357.4771" x2="-39.8992" y2="362.0186" gradientTransform="matrix(1 0 0 -1 0 796)">
				<stop  offset="0" style="stop-color:#393939"/>
				<stop  offset="0.4874" style="stop-color:#2D2D2D"/>
				<stop  offset="1" style="stop-color:#262626"/>
			</linearGradient>
			<path class="st2" d="M-54.4,424.6l15.7,21.3c-0.7,0.1-1.5,0.1-2.3,0.1c-4.7,0-9.1-0.8-12.7-2.1l-9.3-12.6
				C-61.7,428.6-58.6,426.2-54.4,424.6L-54.4,424.6z"/>
			
				<linearGradient id="SVGID_4_" gradientUnits="userSpaceOnUse" x1="-34.1" y1="366.6624" x2="-34.1" y2="343.7624" gradientTransform="matrix(1 0 0 -1 0 796)">
				<stop  offset="0" style="stop-color:#1A1A1A"/>
				<stop  offset="1" style="stop-color:#000100"/>
			</linearGradient>
			<path class="st3" d="M-35,422.7l6.6,21.3c-1.4,0.5-2.9,0.9-4.4,1.2l-7-22.9C-38.2,422.3-36.5,422.5-35,422.7L-35,422.7z"/>
			<path class="st4" d="M-40.2,443.9l1.5,2l0,0l-1.5,0.1c0,0-1.6,0-1.8,0L-40.2,443.9L-40.2,443.9z"/>
			<path class="st5" d="M-25.5,425.5l-27.6,18.6c-0.5-0.2-1.1-0.4-1.6-0.6l27.8-18.7C-26.4,425.1-25.9,425.3-25.5,425.5L-25.5,425.5
				z"/>
			
				<linearGradient id="SVGID_5_" gradientUnits="userSpaceOnUse" x1="-40.95" y1="373.7" x2="-40.95" y2="360.9835" gradientTransform="matrix(1 0 0 -1 0 796)">
				<stop  offset="0" style="stop-color:#676767"/>
				<stop  offset="1" style="stop-color:#222323"/>
			</linearGradient>
			<path class="st6" d="M-22.6,427.2c-1.8,4.5-9.4,7.8-18.4,7.8s-16.5-3.3-18.3-7.8c4.1-3,10.8-4.9,18.3-4.9
				C-33.4,422.3-26.7,424.2-22.6,427.2L-22.6,427.2z"/>
			
				<linearGradient id="SVGID_6_" gradientUnits="userSpaceOnUse" x1="-29.7762" y1="362.0025" x2="-24.2761" y2="369.1323" gradientTransform="matrix(1 0 0 -1 0 796)">
				<stop  offset="0" style="stop-color:#353435"/>
				<stop  offset="1" style="stop-color:#4D4C4C"/>
			</linearGradient>
			<path class="st7" d="M-25,425.8l-6.7,7.9c4.5-1.4,7.9-3.7,9-6.5C-23.3,426.7-24.1,426.2-25,425.8L-25,425.8z"/>
			
				<linearGradient id="SVGID_7_" gradientUnits="userSpaceOnUse" x1="-57.5612" y1="370.8618" x2="-50.2238" y2="361.1252" gradientTransform="matrix(1 0 0 -1 0 796)">
				<stop  offset="0" style="stop-color:#656665"/>
				<stop  offset="1" style="stop-color:#393939"/>
			</linearGradient>
			<path class="st8" d="M-54.4,424.6l7.3,9.9c-6.1-1.1-10.8-3.9-12.2-7.3c0.7-0.5,1.4-0.9,2.1-1.3C-56.3,425.4-55.3,425-54.4,424.6
				L-54.4,424.6z"/>
			
				<linearGradient id="SVGID_8_" gradientUnits="userSpaceOnUse" x1="-35.75" y1="372.7481" x2="-35.75" y2="356.9713" gradientTransform="matrix(1 0 0 -1 0 796)">
				<stop  offset="0" style="stop-color:#656564"/>
				<stop  offset="1" style="stop-color:#131313"/>
			</linearGradient>
			<path class="st9" d="M-35,422.7l3.4,11c-1.4,0.4-2.9,0.8-4.5,1l-3.8-12.4h0.1h0.1C-38.1,422.4-36.5,422.5-35,422.7L-35,422.7z"/>
			
				<linearGradient id="SVGID_9_" gradientUnits="userSpaceOnUse" x1="-38.9831" y1="361.9206" x2="-25.6096" y2="371.6143" gradientTransform="matrix(1 0 0 -1 0 796)">
				<stop  offset="0" style="stop-color:#383838"/>
				<stop  offset="1" style="stop-color:#626261"/>
			</linearGradient>
			<path class="st10" d="M-25.5,425.5l-14,9.5c-0.5,0-1,0-1.4,0c-0.3,0-0.7,0-1,0l15.1-10.1l0,0l0.6,0.2L-25.5,425.5L-25.5,425.5z"
				/>
			<polygon class="st11" points="-32.6,430.3 -36.6,433 -37,431.6 -33,429 			"/>
			<polygon class="st12" points="-44.4,438.2 -53.1,444.1 -53.1,444.1 -53.1,444.1 -53.2,444.1 -53.2,444.1 -53.2,444.1 
				-53.3,444.1 -53.3,444.1 -53.3,444.1 -53.3,444.1 -53.3,444.1 -53.4,444.1 -53.4,444 -53.4,444 -53.4,444 -53.5,444 -53.5,444 
				-53.5,444 -53.5,444 -53.5,444 -53.6,444 -53.6,444 -53.6,444 -53.6,444 -53.7,443.9 -53.7,443.9 -54.2,443.2 -45.2,437.1 			"/>
			
				<linearGradient id="SVGID_10_" gradientUnits="userSpaceOnUse" x1="-32.55" y1="362.3317" x2="-32.55" y2="352.7572" gradientTransform="matrix(1 0 0 -1 0 796)">
				<stop  offset="0" style="stop-color:#131313"/>
				<stop  offset="1" style="stop-color:#131313"/>
			</linearGradient>
			<polygon class="st13" points="-31.6,433.7 -35.1,437.8 -33.5,443.2 -30,439.1 			"/>
		</g>
		<g>
			
				<radialGradient id="SVGID_11_" cx="-61.3508" cy="825.9379" r="8.2754" gradientTransform="matrix(4.038 0 0 -4.038 206.9159 3749.178)" gradientUnits="userSpaceOnUse">
				<stop  offset="0.7555" style="stop-color:#F19118"/>
				<stop  offset="1" style="stop-color:#EC7F13"/>
			</radialGradient>
			<path class="st14" d="M-65.6,434.5c-7.8-12.7-4.8-29.9,6.8-36.6c0.4,2.6,1.5,3.9,2.5,4.2c7.4,1.9,13-16.1,4.9-27.5
				c21-1.4,35.9,15,39.8,32.6c2.3,10.2,0.6,21-4.9,28.3c0.1-0.6,0.2-1.3,0.2-1.9c0-4.3-3-8-7.9-10.5c-4.4-2.3-10.3-3.7-16.8-3.7
				s-12.5,1.4-16.8,3.7C-62,425.1-66,429.4-65.6,434.5L-65.6,434.5z"/>
			
				<linearGradient id="SVGID_12_" gradientUnits="userSpaceOnUse" x1="-63.6115" y1="408.926" x2="-21.5516" y2="389.3132" gradientTransform="matrix(1 0 0 -1 0 796)">
				<stop  offset="1.929730e-002" style="stop-color:#EE7718"/>
				<stop  offset="0.2588" style="stop-color:#F3CA24"/>
				<stop  offset="1" style="stop-color:#F49F1B"/>
			</linearGradient>
			<path class="st15" d="M-67.8,408.3c1.9-4.4,4.9-8.1,9-10.5c0.4,2.6,1.5,3.9,2.5,4.2c7.4,1.9,13-16.1,4.9-27.5
				c12.9-0.9,23.6,5,30.7,13.8c-12-3.5-15.6,3-18.7,9.5c-5,10.5-8.4,11.6-23.7,10.6C-64.7,408.3-66.3,408.3-67.8,408.3L-67.8,408.3z
				"/>
			<path class="st16" d="M-64.5,408.4c-0.2,0-0.4,0-0.6,0c0.8-1.6,1.8-3.1,2.9-4.3c0.4-0.4,0.7-0.1,0.2,0.4
				C-62.9,405.5-63.8,406.8-64.5,408.4L-64.5,408.4z"/>
			
				<linearGradient id="SVGID_13_" gradientUnits="userSpaceOnUse" x1="-43.3024" y1="414.9083" x2="-26.4907" y2="400.8016" gradientTransform="matrix(1 0 0 -1 0 796)">
				<stop  offset="0" style="stop-color:#F6CE19"/>
				<stop  offset="1" style="stop-color:#F9D605"/>
			</linearGradient>
			<path class="st17" d="M-38.9,375.8c7.3,2.2,13.5,6.7,18.2,12.4c-11.7-3.4-15.4,2.7-18.5,9.1c1.4-4.8,4.9-12,12.9-12
				C-29.5,381.4-34.1,378.3-38.9,375.8L-38.9,375.8z"/>
			
				<radialGradient id="SVGID_14_" cx="-61.3577" cy="825.665" r="7.873" gradientTransform="matrix(4.038 0 0 -4.038 206.9159 3749.178)" gradientUnits="userSpaceOnUse">
				<stop  offset="5.882350e-003" style="stop-color:#F6BF19"/>
				<stop  offset="1" style="stop-color:#EC6F1C"/>
			</radialGradient>
			<path class="st18" d="M-13.8,430.9c-0.8,1.6-1.7,3.1-2.7,4.5c0.1-0.6,0.2-1.3,0.2-1.9c0-4.3-3-8-7.9-10.5
				c-4.4-2.3-10.3-3.7-16.8-3.7s-12.5,1.4-16.8,3.7c-3.6,1.9-7,5.3-7.7,9.4c0-5,0.7-13.5,8.1-21.4c4.8,8.3,27.9,4.5,25-19.6
				C-18.6,401.9-13.5,414.6-13.8,430.9L-13.8,430.9z"/>
			
				<linearGradient id="SVGID_15_" gradientUnits="userSpaceOnUse" x1="-29.8199" y1="378.95" x2="-15.1818" y2="378.95" gradientTransform="matrix(1 0 0 -1 0 796)">
				<stop  offset="0" style="stop-color:#EF811A"/>
				<stop  offset="1" style="stop-color:#ED741C"/>
			</linearGradient>
			<path class="st19" d="M-17.8,428.4c-0.4-0.6-0.9-1.3-1.4-1.8c-1.1-1.1-2.1-2-3.5-2.8c-2.2-1.4-4.7-2.4-7.2-3.1
				c2.7-3.5,3.8-8.3,1.8-10.8c3.8,1.8,7-0.5,8.5-4.2c2,3.4,3.4,7,4.3,10.9C-15.4,420.6-16.3,424.6-17.8,428.4L-17.8,428.4z"/>
			
				<linearGradient id="SVGID_16_" gradientUnits="userSpaceOnUse" x1="-56.5398" y1="379.98" x2="-33.0823" y2="396.0438" gradientTransform="matrix(1 0 0 -1 0 796)">
				<stop  offset="0" style="stop-color:#F5A21C"/>
				<stop  offset="0.3167" style="stop-color:#F5D01C"/>
				<stop  offset="1" style="stop-color:#F8AD1F"/>
			</linearGradient>
			<path class="st20" d="M-60.2,414.4c0.8-1.1,1.7-2.3,2.8-3.4c4.8,8.3,27.9,4.5,25-19.6c5,21-19.2,30.7-25.2,20.5
				C-59,412.8-59.4,413.6-60.2,414.4L-60.2,414.4z"/>
			
				<linearGradient id="SVGID_17_" gradientUnits="userSpaceOnUse" x1="-55.2353" y1="418.4281" x2="-48.7799" y2="389.2894" gradientTransform="matrix(1 0 0 -1 0 796)">
				<stop  offset="1.502790e-003" style="stop-color:#D0151B"/>
				<stop  offset="0.9529" style="stop-color:#EB830F"/>
			</linearGradient>
			<path class="st21" d="M-58.9,397.9L-58.9,397.9c0.5,2.6,1.6,3.9,2.6,4.1c7.3,1.9,12.8-15.4,5.4-26.8c-0.2-0.3-0.5-0.7-0.5-0.7
				c10.4,6.5,9.5,29.6-1.1,31.2C-57.4,406.4-59.7,401.8-58.9,397.9L-58.9,397.9z"/>
			
				<linearGradient id="SVGID_18_" gradientUnits="userSpaceOnUse" x1="-48.951" y1="416.9483" x2="-49.3377" y2="390.2611" gradientTransform="matrix(1 0 0 -1 0 796)">
				<stop  offset="1.502790e-003" style="stop-color:#AA2F18"/>
				<stop  offset="1" style="stop-color:#C26317"/>
			</linearGradient>
			<path class="st22" d="M-50.7,375c5.2,3.8,7.4,12.5,6.4,19.6c-0.3,2.1-0.9,4.2-1.8,5.9c0,0.1-0.1,0.1-0.1,0.2
				c-0.4,0.7-0.8,1.4-1.3,1.9l0,0c-0.1,0.1-0.1,0.2-0.2,0.2c-1.1,1.3-2.3,2.2-3.9,2.6h-0.2h-0.1c-0.3,0.1-0.7,0.1-1,0.2
				c-0.5,0.1-1,0.1-1.5,0l0,0C-41.3,405.5-42.7,381.9-50.7,375L-50.7,375z"/>
			<path class="st23" d="M-51.1,374.6c-0.2-0.1-0.4-0.2-0.2-0.1c7.4,4.6,9.2,18.6,5.2,26.1c-1.2,2.3-3,4.1-5.3,4.8
				c-0.4,0.1-1,0.2-1.4,0.3c0.4,0,1.2-0.2,1.5-0.2C-41.2,402.7-41.2,380.8-51.1,374.6L-51.1,374.6z"/>
			
				<linearGradient id="SVGID_19_" gradientUnits="userSpaceOnUse" x1="-19.4835" y1="388.75" x2="-15.0943" y2="388.75" gradientTransform="matrix(1 0 0 -1 0 796)">
				<stop  offset="0" style="stop-color:#EF8117"/>
				<stop  offset="1" style="stop-color:#EF8117"/>
			</linearGradient>
			<path class="st24" d="M-19.5,405.6c0.9-2.2,1.2-4.9,0.6-7.6c3,5.6,4.1,12.1,3.7,18.5C-16.1,412.7-17.5,409.1-19.5,405.6
				L-19.5,405.6z"/>
			<path class="st25" d="M-19.4,405.8c0.8-2.5,1-5.4,0.5-7.6c0-0.2-0.2-0.3-0.2-0.1c0.5,2.1,0.3,4.9-0.6,7.3
				C-19.6,405.5-19.5,405.6-19.4,405.8L-19.4,405.8z"/>
			<path class="st26" d="M-27.9,409.9c-0.2-0.1-0.1,0.1,0.2,0.2c4.2,2.1,7-0.6,8.3-4.4c-0.1-0.1-0.2-0.3-0.2-0.4
				C-20.9,409-23.7,411.7-27.9,409.9L-27.9,409.9z"/>
			<path class="st27" d="M-65.1,408.3c-2.9,6-3.1,14.1-1.2,20l0.3,1l0.5-0.9c0.1-0.1,0.1-0.2,0.2-0.3c0.1-0.6,0.2-1.3,0.3-2
				c-0.2,0.3-0.5,0.6-0.7,0.9c-1.4-5-1.3-13,1.2-18.6C-64.7,408.4-64.9,408.3-65.1,408.3L-65.1,408.3z"/>
			<path class="st28" d="M-17.3,427.1c0.4,0.5,0.8,0.9,1.1,1.4c0.3,0.5,0.5,0.3,0.2-0.2s-0.8-1.1-1.2-1.6L-17.3,427.1L-17.3,427.1z"
				/>
			<path class="st29" d="M-65.3,428.2c5.7-9.4,23-11.6,35.8-8c0.1-0.2,0.2-0.3,0.3-0.5c-12.5-3.9-29.2-2-35.9,6.5
				C-65.1,426.9-65.2,427.6-65.3,428.2L-65.3,428.2z"/>
			<path class="st30" d="M-29.5,420.2c0.1-0.2,0.2-0.3,0.3-0.5c4.9,1.5,9.2,3.9,11.9,7.1l-0.1,0.3C-20,424-24.4,421.6-29.5,420.2
				L-29.5,420.2z"/>
		</g>
	</g>
</g>
<path class="st31" d="M-41,348.9c-27,0-48.9,21.9-48.9,48.9c0,15.9,7.6,30.6,20.5,39.8c0.5,0.4,1.2,0.4,1.8,0l-0.9-1.2
	c-0.3-0.4-0.6-0.9-0.8-1.4h-0.1l0,0c-0.2-0.3-0.3-0.6-0.4-0.9c-0.2-0.1-0.2-0.2-0.3-0.4l0,0c-0.2-0.5-0.5-1-0.7-1.5
	c-0.3-0.8-0.6-1.5-0.9-2.3l0,0v-0.1c-0.1-0.3-0.2-0.7-0.3-1v-0.1c-0.5-1.5-0.8-3.1-1-4.7l0,0c0-0.1,0-0.2,0-0.2
	c-0.1-0.7-0.2-1.3-0.2-2c0,0,0,0,0-0.1l0,0c0-0.4-0.1-0.8-0.1-1.2l0,0c0-0.4,0-0.9,0-1.3l0,0l0,0c0-0.2,0-0.5,0-0.7
	c0-0.2,0-0.3,0-0.5c0-0.3,0-0.6,0-0.8c0-0.1,0-0.3,0-0.4c0.1-0.8,0.1-1.6,0.3-2.3l0,0c0-0.1,0-0.2,0.1-0.4c0-0.2,0.1-0.4,0.1-0.6
	c0.2-1.3,0.6-2.6,1-3.8c0,0,0,0,0-0.1c0.1-0.4,0.2-0.7,0.4-1.1c0.1-0.1,0.1-0.3,0.2-0.4c0.3-0.7,0.5-1.3,0.8-1.9
	c0.1-0.1,0.1-0.2,0.2-0.3c0.3-0.7,0.7-1.4,1.1-2.1c0.1-0.1,0.1-0.2,0.2-0.3c0.2-0.3,0.3-0.5,0.5-0.7c0.1-0.1,0.1-0.2,0.2-0.3
	c0.5-0.7,1-1.3,1.5-2l0,0c0.3-0.4,0.7-0.7,1-1.1c0.1-0.1,0.2-0.2,0.3-0.3c0.3-0.3,0.5-0.5,0.8-0.8c0.1-0.1,0.2-0.2,0.4-0.3
	c0.3-0.2,0.5-0.5,0.8-0.7c0.1-0.1,0.2-0.2,0.4-0.3c0.4-0.3,0.8-0.6,1.2-0.9c0.2-0.1,0.3-0.2,0.5-0.3c0,0,0,0,0.1,0
	c0.2-0.1,0.3-0.2,0.5-0.3c0.2-0.1,0.3-0.2,0.5-0.2c0.2-0.1,0.3-0.1,0.5-0.2c0.3-0.1,0.6-0.2,0.9-0.2h0.1c0.1,0,0.2,0,0.3,0h0.1
	c0.3,0,0.6,0.1,0.8,0.2c0.1,0,0.1,0.1,0.2,0.1l0,0c0.1,0.1,0.2,0.1,0.2,0.2c0.1,0.1,0.2,0.2,0.3,0.4c0,0.1,0.1,0.1,0.1,0.2
	c0,0,0,0,0,0.1s0.1,0.1,0.1,0.2c0,0.1,0.1,0.2,0.1,0.3v0.1c0,0.1,0,0.1,0,0.2l0,0c0,0.1,0,0.2,0,0.3l0,0c0,0,0,0,0,0.1
	c0,0.2,0,0.3,0.1,0.5l0,0v0.3l0,0c0,0.1,0,0.1,0,0.2l0,0c0,0,0,0,0,0.1s0,0.2,0.1,0.2v0.1c0,0.1,0,0.2,0.1,0.2l0,0l0,0
	c0.1,0.2,0.3,0.4,0.5,0.5l0,0c0.1,0,0.3,0,0.5-0.1l0,0c0.1,0,0.2-0.1,0.2-0.1h0.1l0,0c0.6-0.3,1.1-0.7,1.6-1.3l0,0l0,0
	c0.7-0.9,1.3-2.1,1.7-3.4l0,0l0,0c0.1-0.3,0.2-0.5,0.2-0.8v-0.1l0,0c0.3-1,0.5-2,0.6-3c0,0,0,0,0-0.1l0,0c0.1-0.3,0.1-0.7,0.1-1l0,0
	v-0.1c0-0.5,0.1-0.9,0.1-1.3c0-0.1,0-0.2,0-0.3l0,0c0-0.1,0-0.3,0-0.4l0,0c0-0.2,0-0.4,0-0.5l0,0v-0.3l0,0c0-0.1,0-0.1,0-0.2l0,0
	c0-0.1,0-0.3,0-0.4l0,0c0-0.2,0-0.3,0-0.5l0,0v-0.3l0,0c0-0.1,0-0.1,0-0.2l0,0v-0.3l0,0c0-0.2,0-0.4-0.1-0.5c0-0.1,0-0.3-0.1-0.4
	l0,0c0,0,0,0,0-0.1l0,0v-0.3l0,0c0-0.2,0-0.3-0.1-0.5l0,0c0-0.2-0.1-0.5-0.2-0.7l0,0c0-0.1-0.1-0.3-0.1-0.4l0,0l0,0c0,0,0,0,0-0.1
	c0-0.2-0.1-0.3-0.1-0.5l0,0c-0.1-0.2-0.1-0.4-0.2-0.6l0,0l-0.1-0.3c-0.1-0.2-0.1-0.3-0.2-0.5l0,0c0-0.1,0-0.1-0.1-0.2l0,0
	c-0.1-0.1-0.1-0.3-0.2-0.4c0-0.1,0-0.1-0.1-0.2l0,0l-0.1-0.3l0,0c0-0.1-0.1-0.1-0.1-0.2l0,0l-0.1-0.3l0,0c0-0.1-0.1-0.2-0.1-0.3
	c-0.1-0.2-0.2-0.3-0.2-0.5l0,0c0-0.1-0.1-0.2-0.1-0.2l0,0c-0.1-0.2-0.2-0.3-0.3-0.5l0,0l-0.1-0.1c-0.2-0.2-0.3-0.5-0.4-0.7l0,0
	c0-0.1-0.1-0.1-0.1-0.2c-0.1-0.2-0.3-0.4-0.4-0.6V375c-0.1-0.1-0.1-0.2-0.2-0.3c-0.1-0.1-0.1-0.3-0.1-0.4v-0.1c0-0.1,0-0.2-0.1-0.4
	v-0.1c0-0.1,0-0.2,0-0.4l0,0c0-0.1,0-0.3,0.1-0.4c0,0,0,0,0-0.1s0.1-0.3,0.1-0.4l0,0l0,0c0.1-0.3,0.3-0.5,0.5-0.8l0,0
	c0.1-0.1,0.2-0.2,0.4-0.3s0.4-0.2,0.6-0.3c0.1,0,0.1,0,0.2-0.1c0.1,0,0.2,0,0.3-0.1c0.1,0,0.1,0,0.2,0c0.1,0,0.2,0,0.3,0
	c3.3-0.2,6.5,0,9.6,0.5h0.1c3.6,0.7,7.1,1.9,10.2,3.5l0,0c1,0.5,2,1.1,3,1.7l0.1,0.1c0.5,0.3,0.9,0.6,1.4,0.9c0,0,0,0,0.1,0
	c1,0.7,1.9,1.4,2.8,2.1c1,0.8,2,1.7,2.9,2.6l0,0c1.4,1.4,2.7,2.9,3.9,4.4l0.1,0.1c1.2,1.5,2.3,3.1,3.3,4.8l0.1,0.1
	c0.3,0.5,0.6,1.1,0.9,1.7v0.1c2.2,4.1,3.8,8.4,4.8,12.8c0.4,1.7,0.7,3.5,0.8,5.2c0,0.1,0,0.1,0,0.2l0,0c0,0.4,0.1,0.7,0.1,1.1v0.1
	c0.1,1.9,0.1,3.8,0,5.7c0,0,0,0,0,0.1c-0.1,2.2-0.5,4.4-0.9,6.5v0.2l0,0c-0.2,0.8-0.4,1.7-0.7,2.5c0,0.1-0.1,0.2-0.1,0.3
	c-0.9,2.7-2,5.3-3.6,7.6l-0.9,1c0.8,1.1,1.9-0.1,2.6-0.6C1,427.1,8,412.9,8,397.8C8,370.8-13.9,348.9-41,348.9z"/>
<path class="st32" d="M29.9,381v9.4h2l6.4-9.4h8l-8.8,12.2l9.5,12.7h-8.2l-6.9-9.8h-2v9.8h-6.6V381H29.9L29.9,381z M62.8,401.6h-8.9
	l-1.2,4.3h-6.9l7.5-24.9h10.1l7.6,24.9h-6.8L62.8,401.6L62.8,401.6z M61.5,396.8L58.4,386h-0.1l-3,10.8H61.5L61.5,396.8z
	 M83.5,395.6H80V391h3.2c0.7,0,1.3-0.1,1.7-0.2c0.4-0.1,0.7-0.4,0.9-0.7c0.2-0.3,0.3-0.8,0.3-1.5c0-0.8-0.3-1.4-0.8-1.8
	c-0.5-0.4-1.6-0.6-3.2-0.6c-0.9,0-1.7,0.1-2.2,0.2s-0.9,0.4-1.2,0.8c-0.3,0.4-0.4,0.9-0.4,1.6H72v-1c0-1.8,0.4-3.2,1.2-4.2
	s1.9-1.7,3.4-2.1s3.4-0.6,5.6-0.6c2.3,0,4.2,0.2,5.7,0.6s2.7,1.1,3.5,2c0.8,1,1.2,2.3,1.2,4s-0.3,3.1-0.8,4s-1.6,1.5-3.1,1.7v0.3
	c1.6,0.1,2.7,0.6,3.3,1.5c0.7,0.9,1,2.1,1,3.7c0,1.5-0.1,2.8-0.4,3.7c-0.3,0.9-0.8,1.7-1.6,2.2c-0.8,0.6-1.8,1-3.2,1.2
	c-1.4,0.2-3.3,0.4-5.6,0.4c-1.9,0-3.5-0.1-4.8-0.3c-1.3-0.2-2.3-0.6-3.2-1.2s-1.5-1.4-2-2.5c-0.4-1.1-0.7-2.5-0.7-4.3h6.4
	c0,0.9,0.1,1.5,0.4,1.9c0.2,0.4,0.6,0.7,1.2,0.8c0.6,0.1,1.4,0.2,2.6,0.2c1.1,0,1.9-0.1,2.5-0.2s1-0.4,1.2-0.7
	c0.3-0.4,0.4-0.9,0.4-1.6c0-0.9-0.2-1.6-0.6-2C85.3,395.8,84.6,395.6,83.5,395.6L83.5,395.6z M96.2,405.9V381h13.1
	c1.8,0,3.3,0.2,4.4,0.5c1.1,0.3,2,1,2.6,1.9s0.9,2.3,0.9,4c0,1.2-0.1,2.1-0.3,2.9c-0.2,0.8-0.6,1.4-1.2,1.9c-0.6,0.5-1.4,0.8-2.4,1
	v0.3c1.2,0.1,2.1,0.3,2.7,0.8c0.6,0.5,1.1,1.1,1.3,1.9c0.2,0.8,0.3,1.7,0.3,2.9c0,2-0.3,3.5-0.9,4.4c-0.6,1-1.5,1.7-2.6,2
	c-1.1,0.3-2.7,0.5-4.6,0.5H96.2V405.9z M102.9,386.4v4.5h4.8c0.8,0,1.4-0.1,1.8-0.2c0.4-0.1,0.7-0.4,0.8-0.7
	c0.2-0.3,0.2-0.8,0.2-1.5c0-0.8-0.1-1.3-0.4-1.7c-0.3-0.3-0.8-0.5-1.7-0.5h-5.5V386.4z M102.9,395.6v4.9h5c0.8,0,1.3-0.1,1.8-0.2
	c0.4-0.1,0.8-0.4,1-0.8s0.3-0.9,0.3-1.6c0-1-0.2-1.6-0.6-1.9c-0.4-0.3-1.2-0.4-2.3-0.4H102.9L102.9,395.6z M131.9,386.8v19.1h-6.7
	v-19.1h-6.4V381h19.7v5.8H131.9L131.9,386.8z M151.2,406.1c-1.8,0-3.4-0.1-4.8-0.4c-1.4-0.3-2.5-0.7-3.6-1.4c-1-0.7-1.8-1.6-2.3-2.8
	c-0.6-1.2-0.8-2.7-0.8-4.6v-7c0-1.9,0.3-3.4,0.8-4.6c0.6-1.2,1.3-2.1,2.3-2.8c1-0.6,2.2-1.1,3.6-1.4c1.4-0.3,3-0.4,4.8-0.4
	c1.9,0,3.5,0.1,4.8,0.4c1.4,0.3,2.5,0.7,3.6,1.4c1,0.7,1.8,1.6,2.3,2.8c0.6,1.2,0.8,2.8,0.8,4.6v7c0,1.8-0.3,3.4-0.8,4.6
	s-1.3,2.1-2.3,2.8c-1,0.7-2.2,1.1-3.6,1.4C154.6,406,153,406.1,151.2,406.1L151.2,406.1z M151.2,400.3c1.3,0,2.2-0.1,2.9-0.3
	c0.6-0.2,1.1-0.6,1.4-1.1c0.3-0.6,0.4-1.5,0.4-2.7v-5.6c0-0.9-0.1-1.7-0.2-2.2c-0.2-0.5-0.4-0.9-0.8-1.2c-0.4-0.3-0.8-0.4-1.4-0.5
	c-0.6-0.1-1.3-0.1-2.3-0.1c-1.3,0-2.2,0.1-2.8,0.3c-0.6,0.2-1.1,0.5-1.4,1.1c-0.3,0.6-0.5,1.5-0.5,2.7v5.6c0,1.2,0.2,2.1,0.5,2.7
	s0.7,1,1.4,1.1C149,400.2,149.9,400.3,151.2,400.3L151.2,400.3z M172.4,405.9h-6.6V381h12.5c1.6,0,2.9,0.2,4,0.5s1.9,0.9,2.6,1.6
	c0.7,0.7,1.2,1.7,1.5,2.8c0.3,1.2,0.5,2.6,0.5,4.2c0,1.8-0.1,3.3-0.4,4.5c-0.2,1.2-0.7,2.1-1.3,2.8c-0.6,0.7-1.5,1.2-2.6,1.6
	c-1.1,0.3-2.5,0.5-4.3,0.5h-5.9L172.4,405.9L172.4,405.9z M172.4,393.7h4.6c0.9,0,1.6-0.1,2-0.2c0.4-0.2,0.7-0.5,0.8-1
	c0.1-0.5,0.2-1.3,0.2-2.4c0-0.9-0.1-1.6-0.2-2c-0.2-0.5-0.4-0.8-0.8-1c-0.4-0.2-1.1-0.3-1.9-0.3h-4.6v6.9H172.4z M203.9,381h6.6
	v24.9h-6.6v-10c-1.4,0.4-3.3,0.7-5.4,0.7c-2.2,0-4-0.3-5.3-0.9c-1.3-0.6-2.2-1.5-2.8-2.7c-0.6-1.2-0.8-2.9-0.8-4.9V381h6.6v6.2
	c0,1,0.1,1.8,0.3,2.3c0.2,0.5,0.6,0.9,1.1,1.1c0.5,0.2,1.3,0.3,2.4,0.3c1.5,0,2.8-0.2,3.9-0.5L203.9,381L203.9,381z M221.5,386.4
	v4.6h10.6v4.6h-10.6v4.9h11.6v5.5h-18.2v-25h18v5.4H221.5L221.5,386.4z M243.9,405.9h-6.6V381h12.5c1.6,0,2.9,0.2,4,0.5
	s2,0.9,2.6,1.6c0.7,0.7,1.2,1.7,1.5,2.8c0.3,1.2,0.5,2.6,0.5,4.2c0,1.8-0.1,3.3-0.4,4.5c-0.3,1.2-0.7,2.1-1.3,2.8
	c-0.6,0.7-1.5,1.2-2.6,1.6c-1.1,0.3-2.5,0.5-4.3,0.5h-5.9L243.9,405.9L243.9,405.9z M243.9,393.7h4.6c0.9,0,1.6-0.1,2-0.2
	c0.4-0.2,0.7-0.5,0.8-1c0.2-0.5,0.2-1.3,0.2-2.4c0-0.9-0.1-1.6-0.2-2c-0.1-0.5-0.4-0.8-0.8-1c-0.4-0.2-1.1-0.3-1.9-0.3H244v6.9
	H243.9z M266.9,386.8l0.7,19.1H261V381h10.5l4.8,15.6h0.2L281,381h10.8v24.9h-6.6l0.7-19.1h-0.2l-6.3,19.1h-5.8l-6.4-19.1H266.9
	L266.9,386.8z M302.6,386.4v4.6h10.6v4.6h-10.6v4.9h11.6v5.5H296v-25h18v5.4H302.6L302.6,386.4z M329.4,386.8v19.1h-6.7v-19.1h-6.4
	V381h19.8v5.8H329.4L329.4,386.8z"/>
</svg>
